<svg xmlns="http://www.w3.org/2000/svg" width="80" height="80" viewBox="0 0 80 80" fill="none">
  <rect width="80" height="80" rx="40" fill="#E5E7EB"/>
  <path d="M40 20C36.8174 20 33.7652 21.2643 31.5147 23.5147C29.2643 25.7652 28 28.8174 28 32C28 35.1826 29.2643 38.2348 31.5147 40.4853C33.7652 42.7357 36.8174 44 40 44C43.1826 44 46.2348 42.7357 48.4853 40.4853C50.7357 38.2348 52 35.1826 52 32C52 28.8174 50.7357 25.7652 48.4853 23.5147C46.2348 21.2643 43.1826 20 40 20Z" fill="#9CA3AF"/>
  <path d="M40 48C33.6348 48 27.5303 50.5286 23.0294 55.0294C18.5286 59.5303 16 65.6348 16 72H64C64 65.6348 61.4714 59.5303 56.9706 55.0294C52.4697 50.5286 46.3652 48 40 48Z" fill="#9CA3AF"/>
</svg>
